<svg width="235" height="235" viewBox="0 0 235 235" fill="none" xmlns="http://www.w3.org/2000/svg">
<path fill-rule="evenodd" clip-rule="evenodd" d="M110.156 36.7188V14.6875H124.844V36.7188H110.156ZM151.531 43.8702L162.547 24.7905L175.267 32.1343L164.251 51.2139L151.531 43.8702ZM117.5 168.906C145.891 168.906 168.906 145.891 168.906 117.5C168.906 89.1091 145.891 66.0938 117.5 66.0938C89.1091 66.0938 66.0938 89.1091 66.0938 117.5C66.0938 145.891 89.1091 168.906 117.5 168.906ZM117.5 183.594C154.003 183.594 183.594 154.003 183.594 117.5C183.594 80.9972 154.003 51.4062 117.5 51.4062C80.9972 51.4062 51.4062 80.9972 51.4062 117.5C51.4062 154.003 80.9972 183.594 117.5 183.594ZM198.281 110.156H220.312V124.844H198.281V110.156ZM202.866 59.7338L183.787 70.7495L191.131 83.4691L210.21 72.4537L202.866 59.7338ZM59.7338 32.1343L70.7495 51.2139L83.4691 43.8702L72.4537 24.7905L59.7338 32.1343ZM43.8697 83.4691L24.7901 72.4537L32.1338 59.7338L51.2135 70.7495L43.8697 83.4691ZM110.156 198.281V220.312H124.844V198.281H110.156ZM36.7188 110.156H14.6875V124.844H36.7188V110.156ZM24.7897 162.547L43.8693 151.531L51.213 164.25L32.1335 175.266L24.7897 162.547ZM70.75 183.788L59.7344 202.867L72.4541 210.21L83.4698 191.131L70.75 183.788ZM162.547 210.21L151.531 191.131L164.25 183.788L175.266 202.867L162.547 210.21ZM183.787 164.25L202.867 175.266L210.21 162.547L191.131 151.531L183.787 164.25Z" fill="white"/>
</svg>
